<svg width="241" height="53" viewBox="0 0 241 53" fill="none" xmlns="http://www.w3.org/2000/svg">
<path d="M66.0592 3.75588C66.0629 5.81514 67.7086 7.48167 69.735 7.47818C71.7615 7.47469 73.4012 5.80251 73.3976 3.74326C73.3939 1.684 71.7482 0.0174741 69.7218 0.0209598C67.6954 0.0244454 66.0556 1.69663 66.0592 3.75588Z" fill="white"/>
<path d="M179.643 3.76931C179.654 5.83071 181.301 7.49356 183.32 7.4834C185.34 7.47323 186.968 5.7939 186.957 3.7325C186.946 1.6711 185.299 0.00824051 183.28 0.0184057C181.26 0.0285709 179.632 1.70791 179.643 3.76931Z" fill="white"/>
<path d="M81.3371 2.22852H77.1414C77.077 2.22852 77.0249 2.27958 77.0249 2.34258V42.6337C77.0249 42.6967 77.077 42.7477 77.1414 42.7477H81.3371C81.4014 42.7477 81.4536 42.6967 81.4536 42.6337V2.34258C81.4536 2.27958 81.4014 2.22852 81.3371 2.22852Z" fill="white"/>
<path d="M240.992 11.3337V12.2738V14.7398V15.7074L234.53 15.6917C234.345 15.6917 234.252 15.7821 234.252 15.963V42.5943C234.252 42.7385 234.179 42.8054 234.031 42.7949C232.622 42.7058 231.289 42.7018 230.033 42.7831C229.837 42.7962 229.739 42.7084 229.739 42.5196V15.8844C229.739 15.8353 229.719 15.7883 229.684 15.7537C229.649 15.719 229.601 15.6995 229.55 15.6995L224.205 15.7389C224.158 15.7389 224.114 15.7206 224.08 15.6882C224.047 15.6557 224.029 15.6117 224.029 15.5658V11.5501C224.029 11.477 224.058 11.407 224.111 11.3554C224.164 11.3037 224.235 11.2747 224.31 11.2747L229.506 11.3101C229.662 11.3101 229.739 11.2354 229.739 11.0859V2.41337C229.739 2.29014 229.802 2.22852 229.928 2.22852H233.971C234.009 2.22852 234.046 2.23584 234.08 2.25007C234.115 2.2643 234.146 2.28516 234.173 2.31146C234.199 2.33776 234.22 2.36898 234.235 2.40333C234.249 2.43769 234.256 2.47451 234.256 2.5117L234.248 11.0348C234.248 11.1162 234.281 11.1942 234.339 11.2517C234.397 11.3093 234.476 11.3416 234.558 11.3416L240.992 11.3337Z" fill="white"/>
<path d="M89.7963 28.5606C90.8572 33.7956 95.6356 38.1102 101.306 37.7563C105.711 37.477 108.785 34.7159 110.61 30.9559C110.643 30.8865 110.696 30.8279 110.762 30.7868C110.828 30.7458 110.905 30.7239 110.983 30.7238L115.304 30.7159C115.331 30.7158 115.358 30.7223 115.382 30.7348C115.406 30.7473 115.427 30.7655 115.442 30.7877C115.457 30.81 115.466 30.8355 115.469 30.8621C115.471 30.8887 115.467 30.9155 115.456 30.9401C112.72 37.2882 107.35 42.4878 99.9076 42.2322C93.4454 42.0159 88.1687 38.2518 86.095 32.2695C84.0413 26.3305 85.3836 19.4632 90.2142 15.125C94.5304 11.2508 100.88 10.2046 106.294 12.3836C112.828 15.0188 116.329 21.536 115.661 28.3443C115.659 28.3669 115.648 28.388 115.63 28.4033C115.613 28.4186 115.589 28.427 115.565 28.4269L89.9168 28.419C89.8986 28.4193 89.8806 28.4235 89.8642 28.4311C89.8477 28.4387 89.8332 28.4497 89.8217 28.4632C89.8102 28.4767 89.802 28.4925 89.7976 28.5093C89.7932 28.5261 89.7927 28.5436 89.7963 28.5606ZM95.8084 16.714C92.7997 18.122 90.8559 20.5003 89.9771 23.8487C89.9503 23.9536 89.9919 24.006 90.1017 24.006H110.887C110.909 24.0061 110.931 24.0012 110.951 23.9917C110.971 23.9823 110.988 23.9684 111.002 23.9513C111.015 23.9342 111.025 23.9143 111.029 23.8931C111.034 23.8719 111.033 23.85 111.028 23.829C110.036 19.9326 107.621 17.3656 103.782 16.1279C101.242 15.3059 98.2358 15.5812 95.8084 16.714Z" fill="white"/>
<path d="M25.5224 38.105C23.4487 40.2919 20.2578 41.6291 17.2999 41.9438C15.6562 42.1168 13.683 42.1247 12.0594 41.7628C3.861 39.93 -0.792793 32.9251 0.111441 24.8307C0.834827 18.3646 5.56096 13.0549 12.1116 11.7333C16.2349 10.9048 20.172 11.7294 23.9229 14.2073C28.4682 17.2083 30.4656 22.1129 30.3812 27.4226C30.3035 32.4361 30.2807 37.4351 30.3128 42.4197C30.3134 42.4556 30.3065 42.4914 30.2926 42.5247C30.2787 42.5581 30.2581 42.5885 30.2319 42.6141C30.2057 42.6397 30.1745 42.6601 30.1401 42.674C30.1057 42.6878 30.0688 42.695 30.0315 42.695L26.1051 42.6989C26.0355 42.6989 25.9686 42.6717 25.919 42.6231C25.8694 42.5746 25.841 42.5085 25.8399 42.4393L25.8198 38.2191C25.8171 37.9333 25.718 37.8953 25.5224 38.105ZM15.1237 37.7508C18.0057 37.7705 20.7779 36.632 22.8305 34.5858C24.8831 32.5397 26.0479 29.7534 26.0687 26.84C26.0895 23.9266 24.9645 21.1248 22.9414 19.0507C20.9182 16.9767 18.1625 15.8005 15.2805 15.7808C12.3985 15.7611 9.62624 16.8996 7.57367 18.9457C5.52109 20.9919 4.35628 23.7781 4.3355 26.6915C4.31471 29.6049 5.43965 32.4068 7.46284 34.4808C9.48602 36.5548 12.2417 37.7311 15.1237 37.7508Z" fill="white"/>
<path d="M59.4962 38.4447C55.8471 41.8626 50.916 43.0189 45.9488 42.0435C33.3216 39.5656 29.8976 23.2155 39.0846 15.1408C41.027 13.4365 43.3352 12.3063 46.009 11.7504C51.9448 10.5194 58.6241 13.0051 61.8874 18.1103C62.876 19.6547 63.586 21.2306 64.0174 22.838C64.2692 23.7662 64.359 25.0405 64.2866 26.661C64.154 29.6462 64.1218 32.6708 64.1942 35.7505C64.2424 37.8691 64.1058 39.6181 63.7843 40.9973C62.9939 44.3772 61.3301 47.2064 58.7929 49.485C53.2228 54.4879 44.924 53.9648 39.5146 49.0523C37.599 47.3139 36.0705 45.2202 34.9292 42.7711C34.9211 42.7539 34.9177 42.7349 34.919 42.716C34.9203 42.6971 34.9265 42.6788 34.9368 42.6628C34.9472 42.6468 34.9615 42.6336 34.9784 42.6243C34.9953 42.6151 35.0143 42.6101 35.0337 42.6099L39.5387 42.6177C39.6807 42.6177 39.7906 42.6767 39.8683 42.7947C41.9099 45.8665 44.5181 48.0966 48.0265 48.5764C54.324 49.4378 59.0823 44.2893 59.7614 38.5745C59.7963 38.2913 59.7078 38.248 59.4962 38.4447ZM49.2466 38.0077C52.1328 37.983 54.8904 36.7913 56.9128 34.6946C58.9351 32.5979 60.0565 29.7681 60.0303 26.8276C60.0173 25.3716 59.723 23.9323 59.1641 22.5918C58.6052 21.2514 57.7927 20.036 56.773 19.0151C55.7532 17.9942 54.5463 17.1878 53.221 16.6419C51.8957 16.096 50.478 15.8213 49.0489 15.8335C46.1626 15.8581 43.405 17.0499 41.3827 19.1465C39.3604 21.2432 38.239 24.073 38.2652 27.0135C38.2782 28.4695 38.5725 29.9088 39.1314 31.2493C39.6903 32.5898 40.5028 33.8051 41.5225 34.826C42.5422 35.8469 43.7492 36.6534 45.0745 37.1993C46.3998 37.7452 47.8175 38.0199 49.2466 38.0077Z" fill="white"/>
<path d="M71.7952 11.3413H67.5996C67.5352 11.3413 67.483 11.3924 67.483 11.4554V42.6373C67.483 42.7003 67.5352 42.7514 67.5996 42.7514H71.7952C71.8596 42.7514 71.9117 42.7003 71.9117 42.6373V11.4554C71.9117 11.3924 71.8596 11.3413 71.7952 11.3413Z" fill="white"/>
<path d="M123.6 38.6568L123.612 52.7768C123.612 52.8362 123.588 52.8932 123.545 52.9353C123.502 52.9773 123.444 53.0009 123.383 53.0009L119.396 52.997C119.257 52.997 119.187 52.9288 119.187 52.7925C119.185 44.8738 119.186 37.1019 119.192 29.4768C119.192 26.957 119.508 24.4699 120.14 22.0157C122.149 14.1887 129.805 10.0786 137.662 11.8013C143.12 12.993 147.243 16.9458 148.85 22.1848C150.699 28.2064 149.007 35.2782 143.835 39.3647C138.072 43.9154 129.226 43.7974 123.837 38.5624C123.679 38.4077 123.6 38.4391 123.6 38.6568ZM134.526 38.2331C135.955 38.2013 137.363 37.8798 138.67 37.2869C139.977 36.694 141.157 35.8414 142.143 34.7776C143.13 33.7138 143.902 32.4597 144.418 31.0869C144.933 29.7142 145.18 28.2497 145.146 26.777C145.077 23.8027 143.865 20.9757 141.776 18.9179C139.686 16.8602 136.892 15.7401 134.006 15.8042C132.577 15.8359 131.169 16.1574 129.862 16.7503C128.555 17.3432 127.375 18.1959 126.389 19.2597C125.403 20.3235 124.63 21.5775 124.115 22.9503C123.599 24.323 123.352 25.7876 123.386 27.2603C123.455 30.2345 124.667 33.0615 126.757 35.1193C128.846 37.1771 131.641 38.2971 134.526 38.2331Z" fill="white"/>
<path d="M180.584 39.6866C186.946 34.133 187.89 24.6463 183.562 17.8813C181.958 15.372 179.406 13.0475 176.65 11.608C176.371 11.4611 176.39 11.3877 176.706 11.3877L189.088 11.4074C189.211 11.4074 189.273 11.4677 189.273 11.5883L189.277 42.4988C189.277 42.6299 189.208 42.6955 189.072 42.6955L177.686 42.6994C177.212 42.6994 177.159 42.5513 177.526 42.255C178.517 41.4552 179.536 40.5991 180.584 39.6866Z" fill="white"/>
<path d="M213.334 17.7764C211.659 17.0212 209.872 16.7105 207.973 16.8443C202.278 17.2454 199.678 21.0291 199.686 26.1776C199.694 31.7469 199.697 37.2101 199.694 42.567C199.694 42.6902 199.63 42.7519 199.501 42.7519L195.539 42.7479C195.468 42.7479 195.4 42.7207 195.35 42.6721C195.299 42.6236 195.27 42.5575 195.269 42.4883C195.224 36.8797 195.24 31.0678 195.318 25.0527C195.328 24.1193 195.458 23.115 195.707 22.0399C196.925 16.7577 200.285 13.4185 205.971 12.6004C212.088 11.7194 218.643 13.7095 221.03 19.7941C221.834 21.842 222.241 23.9908 222.252 26.2405C222.284 31.5791 222.29 37.0331 222.272 42.6024C222.272 42.642 222.255 42.68 222.226 42.7081C222.196 42.7361 222.157 42.7519 222.115 42.7519L218.068 42.7479C218.034 42.7479 218 42.7413 217.968 42.7285C217.936 42.7156 217.908 42.6968 217.883 42.673C217.859 42.6493 217.84 42.6211 217.827 42.5901C217.814 42.5591 217.807 42.5258 217.807 42.4923C217.839 37.29 217.838 31.8885 217.803 26.2877C217.779 22.976 216.593 19.2513 213.334 17.7764Z" fill="white"/>
<path d="M152.814 26.7544C152.814 34.6026 159.079 40.9648 166.807 40.9648C174.536 40.9648 180.801 34.6026 180.801 26.7544C180.801 18.9062 174.536 12.5439 166.807 12.5439C159.079 12.5439 152.814 18.9062 152.814 26.7544Z" fill="white"/>
</svg>
