<?xml version="1.0" encoding="UTF-8"?>
<svg id="Layer_2" xmlns="http://www.w3.org/2000/svg" viewBox="0 0 552.3 179.45">
  <defs>
    <style>
      .cls-1 {
        fill: #fff;
      }
    </style>
  </defs>
  <g id="Layer_1-2" data-name="Layer_1">
    <g>
      <g>
        <path class="cls-1" d="M218.66,48.87V3.75h8.81v37.26h20.47v7.86h-29.28Z"/>
        <path class="cls-1" d="M255.71,48.87V3.75h29.72v7.86h-20.91v10.59h17.81v7.86h-17.81v10.96h20.91v7.86h-29.72Z"/>
        <path class="cls-1" d="M294.66,48.87V3.75h29.72v7.86h-20.91v10.59h17.81v7.86h-17.81v10.96h20.91v7.86h-29.72Z"/>
        <path class="cls-1" d="M361.81,44.56c-2.98,2.98-7.23,4.31-11.92,4.31h-16.29V3.75h16.29c4.69,0,8.94,1.33,11.92,4.31,5.07,5.07,4.56,11.28,4.56,18.07s.51,13.37-4.56,18.44ZM355.66,14.4c-1.52-1.84-3.55-2.79-6.59-2.79h-6.65v29.41h6.65c3.04,0,5.07-.95,6.59-2.79,1.65-2.03,1.9-5.26,1.9-12.1s-.25-9.7-1.9-11.72Z"/>
        <path class="cls-1" d="M388.39,49.25c-6.85,0-12.04-1.46-16.48-5.96l5.7-5.7c2.85,2.85,6.72,3.8,10.9,3.8,5.2,0,7.98-1.97,7.98-5.58,0-1.58-.45-2.92-1.4-3.8-.89-.83-1.9-1.27-3.99-1.58l-5.45-.76c-3.87-.57-6.72-1.78-8.75-3.74-2.15-2.15-3.23-5.06-3.23-8.87,0-8.05,5.96-13.69,15.72-13.69,6.21,0,10.71,1.52,14.58,5.26l-5.58,5.51c-2.85-2.73-6.28-3.11-9.25-3.11-4.69,0-6.97,2.6-6.97,5.7,0,1.14.38,2.34,1.33,3.23.89.83,2.34,1.52,4.18,1.78l5.32.76c4.12.57,6.72,1.71,8.62,3.48,2.41,2.29,3.49,5.58,3.49,9.57,0,8.74-7.29,13.69-16.73,13.69Z"/>
        <path class="cls-1" d="M237.55,107.54h-18.89v-45.12h18.12c8.81,0,13.94,4.94,13.94,12.68,0,5.01-3.29,8.24-5.58,9.32,2.72,1.26,6.21,4.11,6.21,10.14,0,8.43-5.77,12.99-13.81,12.99ZM236.09,70.27h-8.62v10.39h8.62c3.74,0,5.83-2.09,5.83-5.2s-2.09-5.2-5.83-5.2ZM236.66,88.59h-9.19v11.09h9.19c3.99,0,5.89-2.54,5.89-5.58s-1.9-5.51-5.89-5.51Z"/>
        <path class="cls-1" d="M260.33,107.54v-45.12h29.72v7.86h-20.91v10.59h17.81v7.86h-17.81v10.96h20.91v7.86h-29.72Z"/>
        <path class="cls-1" d="M313.73,107.92c-4.81,0-8.87-1.65-12.17-4.94-1.96-1.97-3.17-4.24-3.67-6.78-.5-2.53-.76-6.27-.76-11.22s.25-8.68.76-11.22c.51-2.6,1.71-4.81,3.67-6.78,3.3-3.29,7.35-4.95,12.17-4.95,8.68,0,15.08,5.07,16.6,14.26h-8.94c-.95-3.87-3.36-6.4-7.6-6.4-2.41,0-4.31.76-5.64,2.34-1.84,1.96-2.22,3.99-2.22,12.73s.38,10.77,2.22,12.74c1.33,1.58,3.23,2.34,5.64,2.34,4.24,0,6.65-2.53,7.6-6.4h8.94c-1.52,9.19-7.98,14.26-16.6,14.26Z"/>
        <path class="cls-1" d="M364.15,107.54l-11.6-20.53-5.83,6.97v13.56h-8.81v-45.12h8.81v19.65l15.91-19.65h10.71l-14.96,17.94,16.03,27.19h-10.27Z"/>
        <path class="cls-1" d="M380.03,107.54v-45.12h29.72v7.86h-20.91v10.59h17.81v7.86h-17.81v10.96h20.91v7.86h-29.72Z"/>
        <path class="cls-1" d="M437.27,70.27v37.26h-8.81v-37.26h-11.79v-7.86h32.38v7.86h-11.79Z"/>
        <path class="cls-1" d="M475.82,70.27v37.26h-8.81v-37.26h-11.79v-7.86h32.38v7.86h-11.79Z"/>
        <path class="cls-1" d="M233.87,166.56c-8.64,0-14.88-5.94-14.88-14.47v-28.63h4.56v28.27c0,6.48,4.08,10.74,10.32,10.74s10.38-4.26,10.38-10.74v-28.27h4.56v28.63c0,8.52-6.3,14.47-14.94,14.47Z"/>
        <path class="cls-1" d="M288.24,166.2l-22.69-34.27v34.27h-4.56v-42.73h4.32l22.68,34.15v-34.15h4.56v42.73h-4.32Z"/>
        <path class="cls-1" d="M305.15,166.2v-42.73h4.56v42.73h-4.56Z"/>
        <path class="cls-1" d="M336.18,166.2h-3.72l-14.05-42.73h4.8l11.1,34.57,11.1-34.57h4.8l-14.04,42.73Z"/>
        <path class="cls-1" d="M358.98,166.2v-42.73h26.53v4.08h-21.97v15.06h18.73v4.08h-18.73v15.42h21.97v4.08h-26.53Z"/>
        <path class="cls-1" d="M420.29,166.2l-9.72-18.96h-10.26v18.96h-4.56v-42.73h16.39c7.44,0,12.66,4.5,12.66,11.88,0,6.24-3.78,10.33-9.3,11.46l10.14,19.39h-5.34ZM411.71,127.55h-11.4v15.66h11.4c4.98,0,8.53-2.58,8.53-7.8s-3.54-7.86-8.53-7.86Z"/>
        <path class="cls-1" d="M447.68,166.56c-6.42,0-10.62-1.62-14.64-5.64l3.12-3.12c3.54,3.54,6.84,4.68,11.64,4.68,6.24,0,10.08-2.94,10.08-7.92,0-2.22-.66-4.14-2.04-5.34-1.38-1.2-2.46-1.56-5.58-2.04l-4.98-.77c-3.36-.54-6-1.62-7.86-3.24-2.16-1.92-3.24-4.56-3.24-7.98,0-7.27,5.22-12.06,13.68-12.06,5.46,0,9.06,1.38,12.72,4.68l-2.94,2.94c-2.64-2.4-5.46-3.66-9.96-3.66-5.7,0-9,3.18-9,7.92,0,2.1.6,3.78,1.92,4.92,1.32,1.14,3.54,1.98,5.76,2.34l4.68.72c4.02.6,6,1.44,7.8,3,2.34,1.98,3.6,4.92,3.6,8.46,0,7.5-5.88,12.12-14.76,12.12Z"/>
        <path class="cls-1" d="M472.71,166.2v-42.73h4.56v42.73h-4.56Z"/>
        <path class="cls-1" d="M503.59,127.55v38.65h-4.56v-38.65h-12.36v-4.08h29.29v4.08h-12.37Z"/>
        <path class="cls-1" d="M539.7,148.55v17.65h-4.56v-17.65l-12.72-25.08h4.92l10.08,20.47,9.96-20.47h4.92l-12.6,25.08Z"/>
      </g>
      <g>
        <g>
          <g>
            <path class="cls-1" d="M123.45.73c-10.81-2.54-24.03,2.39-24.03,2.39-4.64,1.51-7.37,1.29-7.37,1.29,0,0-2.73.22-7.37-1.29,0,0-13.22-4.94-24.03-2.39,0,0-10.61,2.02-8.08,15.93,0,0,.56-10.89,14.05-10.87,0,0,5.06-.2,15.64,4.7,0,0,1.25.68,3.04,1.31h-.01s.04,0,.06.02c.67.24,1.42.45,2.2.63.25.06.49.11.74.16.33.06.65.1.98.14,2.25.3,4.27.22,5.88-.03.3-.04.58-.09.87-.15.32-.06.6-.12.87-.19.13-.03.25-.06.38-.09.96-.25,1.55-.48,1.55-.48h-.01c1.78-.63,3.04-1.31,3.04-1.31,10.58-4.9,15.64-4.7,15.64-4.7,13.49-.02,14.05,10.87,14.05,10.87,2.52-13.9-8.08-15.93-8.08-15.93Z"/>
            <g>
              <path class="cls-1" d="M.08,88.74c1.44-11.01,10.74-21.63,10.74-21.63,3.05-3.81,3.81-6.44,3.81-6.44,0,0,1.17-2.47,1.4-7.35,0,0,.06-14.11,6.26-23.32,0,0,5.64-9.21,17.76-1.93,0,0-10.39-3.33-15.13,9.3,0,0-1.98,4.66-1.13,16.29,0,0,.19,1.41.15,3.3h0s0,.03,0,.05c-.02.71-.08,1.48-.19,2.28-.03.25-.07.5-.11.75-.06.33-.14.64-.22.97-.51,2.21-1.31,4.07-2.11,5.49-.14.26-.29.51-.45.76-.17.28-.33.52-.48.75-.07.11-.15.21-.22.32-.58.8-1,1.28-1,1.28h0c-1.22,1.43-2.3,2.36-2.3,2.36-8.33,8.17-9.93,12.97-9.93,12.97-4.79,12.61,5.2,16.98,5.2,16.98C-1.77,99.37.08,88.74.08,88.74Z"/>
              <path class="cls-1" d="M184.02,88.74c-1.44-11.01-10.74-21.63-10.74-21.63-3.05-3.81-3.81-6.44-3.81-6.44,0,0-1.17-2.47-1.4-7.35,0,0-.06-14.11-6.26-23.32,0,0-5.64-9.21-17.76-1.93,0,0,10.39-3.33,15.13,9.3,0,0,1.98,4.66,1.13,16.29,0,0-.19,1.41-.15,3.3h0s0,.03,0,.05c.02.71.08,1.48.19,2.28.03.25.07.5.11.75.06.33.14.64.22.97.51,2.21,1.31,4.07,2.11,5.49.14.26.29.51.45.76.17.28.33.52.48.75.07.11.15.21.22.32.58.8,1,1.28,1,1.28h0c1.22,1.43,2.3,2.36,2.3,2.36,8.33,8.17,9.93,12.97,9.93,12.97,4.79,12.61-5.2,16.98-5.2,16.98,13.9-2.55,12.04-13.19,12.04-13.19Z"/>
            </g>
            <g>
              <path class="cls-1" d="M15.45,135.62c7.6,8.1,21.34,11.3,21.34,11.3,4.7,1.31,6.85,3.01,6.85,3.01,0,0,2.39,1.32,5.43,5.15,0,0,8.28,11.43,18.69,15.29,0,0,9.96,4.18,15.55-8.79,0,0-6.49,8.77-17.72,1.28,0,0-4.33-2.63-10.43-12.57,0,0-.67-1.26-1.81-2.77h.01s-.03-.02-.04-.04c-.43-.57-.93-1.16-1.49-1.74-.18-.19-.35-.37-.53-.54-.24-.23-.49-.44-.74-.66-1.7-1.5-3.44-2.54-4.91-3.23-.27-.13-.54-.24-.81-.36-.3-.12-.57-.23-.83-.33-.12-.04-.24-.09-.37-.13-.94-.32-1.56-.46-1.56-.46h.01c-1.84-.45-3.26-.58-3.26-.58-11.53-1.77-15.63-4.74-15.63-4.74-11.25-7.44-5.69-16.83-5.69-16.83-9.79,10.18-2.08,17.74-2.08,17.74Z"/>
              <path class="cls-1" d="M168.65,135.62c-7.6,8.1-21.34,11.3-21.34,11.3-4.7,1.31-6.85,3.01-6.85,3.01,0,0-2.39,1.32-5.43,5.15,0,0-8.28,11.43-18.69,15.29,0,0-9.96,4.18-15.55-8.79,0,0,6.49,8.77,17.72,1.28,0,0,4.33-2.63,10.43-12.57,0,0,.67-1.26,1.81-2.77h-.01s.03-.02.04-.04c.43-.57.93-1.16,1.49-1.74.18-.19.35-.37.53-.54.24-.23.49-.44.74-.66,1.7-1.5,3.44-2.54,4.91-3.23.27-.13.54-.24.81-.36.3-.12.57-.23.83-.33.12-.04.24-.09.37-.13.94-.32,1.56-.46,1.56-.46h-.01c1.84-.45,3.26-.58,3.26-.58,11.53-1.77,15.63-4.74,15.63-4.74,11.25-7.44,5.69-16.83,5.69-16.83,9.79,10.18,2.08,17.74,2.08,17.74Z"/>
            </g>
          </g>
          <g>
            <polygon class="cls-1" points="92.06 179.45 97.02 147.62 92.07 147.62 87.11 147.62 92.06 179.45"/>
            <g>
              <polygon class="cls-1" points="182.18 114.22 153.48 99.59 151.94 104.29 150.39 109 182.18 114.22"/>
              <polygon class="cls-1" points="2.03 114.22 30.72 99.59 32.27 104.29 33.81 109 2.03 114.22"/>
            </g>
            <polygon class="cls-1" points="148.43 8.35 133.53 36.9 129.54 33.96 125.56 31.03 148.43 8.35"/>
            <polygon class="cls-1" points="35.69 8.35 50.59 36.9 54.57 33.96 58.56 31.03 35.69 8.35"/>
          </g>
        </g>
        <g>
          <g>
            <path class="cls-1" d="M53.54,99.52v-28.29h4.29v24.44h13.63v3.85h-17.92Z"/>
            <path class="cls-1" d="M92.97,104.59h-15.94v-39.4h15.33c7.3,0,11.9,4.15,11.9,10.79,0,4.26-2.66,7.3-5.31,8.35,3.04,1.22,5.92,4.15,5.92,9.13,0,7.25-4.92,11.12-11.9,11.12ZM91.86,70.56h-8.85v11.29h8.85c3.82,0,6.42-1.99,6.42-5.65s-2.6-5.64-6.42-5.64ZM92.41,87.22h-9.41v12.01h9.41c4.15,0,6.47-2.54,6.47-6.03s-2.32-5.98-6.47-5.98Z"/>
            <path class="cls-1" d="M120.39,99.64c-5.76,0-10.13-3.93-10.13-9.77v-18.75h4.29v18.56c0,3.78,2.31,6.12,5.84,6.12s5.88-2.34,5.88-6.12v-18.56h4.29v18.75c0,5.84-4.41,9.77-10.17,9.77Z"/>
          </g>
          <g>
            <path class="cls-1" d="M92.05,143.54c-32.34,0-58.65-26.31-58.65-58.65s26.31-58.65,58.65-58.65,58.65,26.31,58.65,58.65-26.31,58.65-58.65,58.65ZM92.05,31.2c-29.61,0-53.69,24.08-53.69,53.69s24.08,53.69,53.69,53.69,53.69-24.08,53.69-53.69-24.08-53.69-53.69-53.69Z"/>
            <path class="cls-1" d="M92.05,135.32c-27.81,0-50.43-22.62-50.43-50.43s22.62-50.43,50.43-50.43,50.43,22.62,50.43,50.43-22.62,50.43-50.43,50.43ZM92.05,36.46c-26.7,0-48.43,21.72-48.43,48.43s21.72,48.43,48.43,48.43,48.43-21.72,48.43-48.43-21.72-48.43-48.43-48.43Z"/>
          </g>
        </g>
      </g>
    </g>
  </g>
</svg>