<svg id="Layer_2" xmlns="http://www.w3.org/2000/svg" viewBox="0 0 332.36 103.69">
  <defs>
    <style>
      .cls-1,.cls-2{fill:#fff;}.cls-2{stroke-width:0px;}
    </style>
  </defs>
  <g id="full_colour">
    <path id="path2478" class="cls-1" d="M298.33,37.5h-9.26v-12.97h9.26v12.97ZM332.36,62.5c0-5.89-3.01-9.62-7.89-10.67,4.88-1.04,7.89-4.77,7.89-10.66V10.63c0-5.87-4.76-10.63-10.64-10.63h-67.13v37.5h-9.26V0h-34.48v37.5h-45.13v-8.8h35.88V0h-70.36v37.5h-9.26V0h-34.48v74.99h-9.26V0h-34.49v74.99h-9.26V0H0v97.3c0,3.51,2.88,6.38,6.39,6.38h48.21c3.51,0,6.39-2.88,6.39-6.38,0,3.51,2.87,6.38,6.39,6.38h48.21c3.51,0,6.38-2.88,6.38-6.38v-31.11h9.26v37.49h70.36v-28.7h-35.88v-8.8h45.13v37.49h34.48v-37.49h9.26v37.49h34.47v-37.49h6.07c1.77,0,3.19,1.43,3.19,3.19v27.92c0,3.51,2.88,6.38,6.39,6.38h27.64v-6.38"/>
    <path id="path2489" class="cls-1" d="M298.33,37.5h-9.26v-12.97h9.26v12.97ZM332.36,62.5c0-5.89-3.01-9.62-7.89-10.67,4.88-1.04,7.89-4.77,7.89-10.66V10.63c0-5.87-4.76-10.63-10.64-10.63h-67.13v37.5h-9.26V0h-34.48v37.5h-45.13v-8.8h35.88V0h-70.36v37.5h-9.26V0h-34.48v74.99h-9.26V0h-34.49v74.99h-9.26V0H0v97.3c0,3.51,2.88,6.38,6.39,6.38h48.21c3.51,0,6.39-2.88,6.39-6.38,0,3.51,2.87,6.38,6.39,6.38h48.21c3.51,0,6.38-2.88,6.38-6.38v-31.11h9.26v37.49h70.36v-28.7h-35.88v-8.8h45.13v37.49h34.48v-37.49h9.26v37.49h34.47v-37.49h6.07c1.77,0,3.19,1.43,3.19,3.19v27.92c0,3.51,2.88,6.38,6.39,6.38h27.64v-41.18Z"/>
  </g>
  <g id="outline_logo_tagline">
    <path class="cls-2" d="M298.33,24.52v12.97h-9.26v-12.97h9.26M300.33,22.52h-13.26v16.97h13.26v-16.97h0Z"/>
    <path class="cls-2" d="M304.72,101.69h25.64v-39.16c0-5.28-2.52-8.73-7.1-9.71l-4.58-.98,4.58-.98c4.59-.98,7.11-4.42,7.11-9.71V10.63c0-4.76-3.88-8.63-8.65-8.63h-65.13v37.5h-13.26V2h-30.48v37.5h-49.13v-12.8h35.88V2h-66.36v37.5h-13.26V2h-30.48v74.99h-13.26V2h-30.49v74.99h-13.26V2H2v95.3c0,2.42,1.97,4.38,4.39,4.38h48.2c2.98,0,5.4-2.42,5.4-5.4h2c0,2.98,2.42,5.4,5.4,5.4h1.93s46.27,0,46.27,0c2.42,0,4.38-1.97,4.38-4.38v-33.11h13.26v37.49h66.36v-24.7h-35.88v-12.8h49.13v37.49h30.48v-37.49h13.26v37.49h30.47v-37.49h8.07c2.86,0,5.19,2.33,5.19,5.19v27.92c0,2.42,1.97,4.38,4.39,4.38M304.72,103.69c-3.51,0-6.39-2.88-6.39-6.38v-27.92c0-1.76-1.43-3.19-3.19-3.19h-6.07v37.49h-34.47v-37.49h-9.26v37.49h-34.48v-37.49h-45.13v8.8h35.88v28.7h-70.36v-37.49h-9.26v31.11c0,3.51-2.88,6.38-6.38,6.38h-48.2c-2.73,0-5.12-1.48-6.4-3.69-1.28,2.2-3.67,3.69-6.4,3.69H6.39C2.88,103.69,0,100.81,0,97.3V0h34.49v74.99h9.26V0h34.49v74.99h9.26V0h34.48v37.5h9.26V0h70.36v28.7h-35.88v8.8h45.13V0h34.48v37.5h9.26V0h67.13c5.87,0,10.64,4.76,10.64,10.63v30.53c0,5.07-2.09,8.82-5.84,10.69,3.75,1.86,5.84,5.62,5.84,10.69v41.16h-27.64"/>
  </g>
</svg>
